<svg xmlns="http://www.w3.org/2000/svg" xmlns:xlink="http://www.w3.org/1999/xlink" width="20" height="20" viewBox="0 0 20 20"><defs><style>.a{fill:none;}.b{fill:#fff;}.c{clip-path:url(#a);}.d{clip-path:url(#b);}</style><clipPath id="a"><rect class="a" width="20" height="20"/></clipPath><clipPath id="b"><path class="b" d="M10,20A10,10,0,1,1,20,10,10.011,10.011,0,0,1,10,20Zm0-9.1c-2.02,0-5.97,1.087-6,3.08a7.2,7.2,0,0,0,12,0c-.017-1.114-1.241-1.858-2.265-2.286A10.7,10.7,0,0,0,10,10.9ZM10,3a3,3,0,1,0,3,3A3,3,0,0,0,10,3Z" transform="translate(14 14)"/></clipPath></defs><g class="c"><g transform="translate(-14 -14)"><path class="b" d="M10,20A10,10,0,1,1,20,10,10.011,10.011,0,0,1,10,20Zm0-9.1c-2.02,0-5.97,1.087-6,3.08a7.2,7.2,0,0,0,12,0c-.017-1.114-1.241-1.858-2.265-2.286A10.7,10.7,0,0,0,10,10.9ZM10,3a3,3,0,1,0,3,3A3,3,0,0,0,10,3Z" transform="translate(14 14)"/><path d="M10,20A10,10,0,1,1,20,10,10.011,10.011,0,0,1,10,20Zm0-9.1c-2.02,0-5.97,1.087-6,3.08a7.2,7.2,0,0,0,12,0c-.017-1.114-1.241-1.858-2.265-2.286A10.7,10.7,0,0,0,10,10.9ZM10,3a3,3,0,1,0,3,3A3,3,0,0,0,10,3Z" transform="translate(14 14)"/></g></g></svg>