<svg xmlns="http://www.w3.org/2000/svg" xmlns:xlink="http://www.w3.org/1999/xlink" width="20.007" height="20" viewBox="0 0 20.007 20"><defs><style>.a{fill:none;}.b{fill:#fff;}.c{clip-path:url(#a);}.d{clip-path:url(#b);}.e{clip-path:url(#c);}</style><clipPath id="a"><rect class="a" width="20.007" height="20"/></clipPath><clipPath id="b"><path class="b" d="M16,20a2,2,0,1,1,2-2A2,2,0,0,1,16,20ZM6,20a2,2,0,1,1,2-2A2,2,0,0,1,6,20Zm11-5H6a2,2,0,0,1-1.75-2.97L5.6,9.59,2,2H1A1,1,0,1,1,1,0H2.64a.986.986,0,0,1,.9.57L4.21,2h14.8a1,1,0,0,1,.87,1.481L16.3,9.97A1.992,1.992,0,0,1,14.55,11H7.1L6,13H17a1,1,0,0,1,0,2Z" transform="translate(13.996 14)"/></clipPath><clipPath id="c"><path d="M16,20a2,2,0,1,1,2-2A2,2,0,0,1,16,20ZM6,20a2,2,0,1,1,2-2A2,2,0,0,1,6,20Zm11-5H6a2,2,0,0,1-1.75-2.97L5.6,9.59,2,2H1A1,1,0,1,1,1,0H2.64a.986.986,0,0,1,.9.57L4.21,2h14.8a1,1,0,0,1,.87,1.481L16.3,9.97A1.992,1.992,0,0,1,14.55,11H7.1L6,13H17a1,1,0,0,1,0,2Z" transform="translate(13.996 14)"/></clipPath></defs><g class="c"><g transform="translate(-13.996 -14)"><path class="b" d="M16,20a2,2,0,1,1,2-2A2,2,0,0,1,16,20ZM6,20a2,2,0,1,1,2-2A2,2,0,0,1,6,20Zm11-5H6a2,2,0,0,1-1.75-2.97L5.6,9.59,2,2H1A1,1,0,1,1,1,0H2.64a.986.986,0,0,1,.9.57L4.21,2h14.8a1,1,0,0,1,.87,1.481L16.3,9.97A1.992,1.992,0,0,1,14.55,11H7.1L6,13H17a1,1,0,0,1,0,2Z" transform="translate(13.996 14)"/><path d="M16,20a2,2,0,1,1,2-2A2,2,0,0,1,16,20ZM6,20a2,2,0,1,1,2-2A2,2,0,0,1,6,20Zm11-5H6a2,2,0,0,1-1.75-2.97L5.6,9.59,2,2H1A1,1,0,1,1,1,0H2.64a.986.986,0,0,1,.9.57L4.21,2h14.8a1,1,0,0,1,.87,1.481L16.3,9.97A1.992,1.992,0,0,1,14.55,11H7.1L6,13H17a1,1,0,0,1,0,2Z" transform="translate(13.996 14)"/></g></g></svg>