<svg xmlns="http://www.w3.org/2000/svg" xmlns:xlink="http://www.w3.org/1999/xlink" width="44" height="44" viewBox="0 0 44 44"><defs><style>.a{fill:none;}.b{clip-path:url(#a);}.c{fill:#fff;}.d{clip-path:url(#b);}</style><clipPath id="a"><rect class="a" width="44" height="44"/></clipPath><clipPath id="b"><path d="M.311.289a.931.931,0,0,0,0,1.389L4.435,5.5.311,9.323a.931.931,0,0,0,0,1.389,1.119,1.119,0,0,0,1.5,0L6.689,6.19a.931.931,0,0,0,0-1.389L1.81.28A1.13,1.13,0,0,0,.311.289Z" transform="translate(19 16)"/></clipPath></defs><g class="b"><rect class="c" width="44" height="44" rx="22"/><path d="M.311.289a.931.931,0,0,0,0,1.389L4.435,5.5.311,9.323a.931.931,0,0,0,0,1.389,1.119,1.119,0,0,0,1.5,0L6.689,6.19a.931.931,0,0,0,0-1.389L1.81.28A1.13,1.13,0,0,0,.311.289Z" transform="translate(19 16)"/></g></svg>