<svg xmlns="http://www.w3.org/2000/svg" xmlns:xlink="http://www.w3.org/1999/xlink" width="32" height="32" viewBox="0 0 32 32"><defs><style>.a{fill:none;}.b{fill:#fff;}.c{clip-path:url(#a);}.d{fill:#3a444c;}.e{clip-path:url(#b);}</style><clipPath id="a"><rect class="a" width="32" height="32"/></clipPath><clipPath id="b"><path class="b" d="M.292.294a1,1,0,0,0,0,1.41l3.88,3.88L.292,9.464a1,1,0,0,0,1.41,1.41l4.59-4.59a1,1,0,0,0,0-1.41L1.7.284A1,1,0,0,0,.292.294Z" transform="translate(13 10)"/></clipPath></defs><g class="c"><circle class="d" cx="16" cy="16" r="16"/><path class="b" d="M.292.294a1,1,0,0,0,0,1.41l3.88,3.88L.292,9.464a1,1,0,0,0,1.41,1.41l4.59-4.59a1,1,0,0,0,0-1.41L1.7.284A1,1,0,0,0,.292.294Z" transform="translate(13 10)"/></g></svg>