<svg xmlns="http://www.w3.org/2000/svg" xmlns:xlink="http://www.w3.org/1999/xlink" width="24" height="24" viewBox="0 0 24 24"><defs><style>.a{fill:none;}.b{fill:#3a444c;}.c{clip-path:url(#a);}</style><clipPath id="a"/></defs><rect class="a" width="24" height="24"/><path class="b" d="M16,17.058a1.048,1.048,0,0,1-.745-.307L11,12.5v-.79l-.27-.28A6.518,6.518,0,0,1,6.5,13a6.7,6.7,0,0,1-1.1-.093A6.538,6.538,0,0,1,.05,7.321,6.5,6.5,0,0,1,6.5,0,6.759,6.759,0,0,1,7.321.05a6.493,6.493,0,0,1,4.11,10.68l.28.27h.79l4.24,4.26a1.052,1.052,0,0,1-.745,1.8ZM6.5,2A4.5,4.5,0,1,0,11,6.5,4.505,4.505,0,0,0,6.5,2Z" transform="translate(3.476 3.471)"/></svg>